<svg width="30" height="30" viewBox="0 0 30 30" fill="none" xmlns="http://www.w3.org/2000/svg">
<path d="M11.875 19.75C9.60417 19.75 7.6825 19.0027 6.11 17.508C4.5375 16.0133 3.75083 14.1877 3.75 12.0312C3.74917 9.87475 4.53583 8.04917 6.11 6.5545C7.68417 5.05983 9.60583 4.3125 11.875 4.3125C14.1442 4.3125 16.0663 5.05983 17.6413 6.5545C19.2163 8.04917 20.0025 9.87475 20 12.0312C20 12.9021 19.8542 13.7234 19.5625 14.4953C19.2708 15.2672 18.875 15.95 18.375 16.5437L25.375 23.1937C25.6042 23.4115 25.7188 23.6885 25.7188 24.025C25.7188 24.3615 25.6042 24.6385 25.375 24.8562C25.1458 25.074 24.8542 25.1828 24.5 25.1828C24.1458 25.1828 23.8542 25.074 23.625 24.8562L16.625 18.2062C16 18.6812 15.2813 19.0573 14.4688 19.3344C13.6563 19.6115 12.7917 19.75 11.875 19.75ZM11.875 17.375C13.4375 17.375 14.7658 16.8557 15.86 15.817C16.9542 14.7783 17.5008 13.5164 17.5 12.0312C17.4992 10.5461 16.9525 9.28456 15.86 8.24669C14.7675 7.20881 13.4392 6.68908 11.875 6.6875C10.3108 6.68592 8.98292 7.20565 7.89125 8.24669C6.79958 9.28773 6.2525 10.5492 6.25 12.0312C6.2475 13.5132 6.79458 14.7752 7.89125 15.817C8.98792 16.8588 10.3158 17.3782 11.875 17.375Z" fill="white"/>
</svg>
